<svg viewBox="0 0 500 500" xmlns="http://www.w3.org/2000/svg" xmlns:xlink="http://www.w3.org/1999/xlink"><defs><path id="marker" d="M 12.62,0.14 C 10.53,0.048 8.37,0.46 6.65,1.35 c -3.41,1.76 -5.85,5.15 -6.5,9.04 -0.41,2.47 -0.03,4.41 1.46,7.42 1.76,3.56 4.97,8.05 9.047,12.67 l 1.31,1.49 0.42,-0.41 c 0.23,-0.23 0.9,-0.97 1.48,-1.65 C 19.48,23.41 23.04,17.71 23.85,13.96 24.1,12.78 24.02,10.79 23.66,9.36 22.65,5.43 19.87,2.25 16.2,0.85 15.1,0.43 13.88,0.19 12.62,0.14 Z" transform="translate(-12,-32)"></path></defs><g></g><g><path fill="#cbd5e8" stroke="gray" d="M343.95720035065847,264.8475699377232L344.8825685818771,265.4492340986071L364.7492218869209,276.61856974814583L365.1228756072827,279.8023930394245L372.9865879948974,285.29420018187267L370.4570290111576,292.0736601658024L370.7819214688915,295.19727815850234L374.2894451019654,297.20675761054576L374.45380890857615,298.6418507811786L372.9454970432446,301.97831352398384L373.25943191387125,303.65909491183766L372.9005709361044,306.3036679720278L374.8137656450537,309.7792450283355L377.081438296927,315.25821944590376L379.0921555311321,316.4757031335292L374.7332273798145,319.70754505031397L368.7427145082072,321.8754556328952L365.4554383759918,321.78383451103076L363.50334423281123,323.46066535124464L359.689556040086,323.60439677642677L358.25904304321693,324.311502428091L351.6751768297448,322.735497740276L347.5529325599467,323.1877797174959L346.01887036491286,315.601056717908L344.16046359150045,313.0074581249139L343.0586782078529,311.47070061377286L337.6878168871683,310.43522480862424L334.5786015454479,308.7696148781003L331.096280362721,307.83587862380193L328.91298113157467,306.9081062722464L326.62394118484195,305.49783233432254L323.6653926658481,298.53143058095105L320.48769240470654,295.44155794736554L319.3919336939681,292.24496561356716L319.9398130493373,289.3819259807762L318.9536302096727,284.3224346761549L321.2191113441245,284.0608462083917L323.20681764540404,282.07034761084L325.3391640965011,279.2067535279122L326.690782466197,278.05794253102295L326.64037756550306,276.27455706274577L325.4607933133931,275.0308979770066L325.1430232872789,272.8716514845816L325.1430232872789,272.8711031186493L326.7242031068745,272.1774519543633L327.0408773742779,268.9517641589014L324.8657963334621,265.8596710258618L326.7877571120974,265.201004076389L332.79415848501026,265.27169173526545Z"></path></g><g><path fill="#f4cae4" stroke="gray" d="M110.72879392546288,101.86695388525132L110.73153332223973,102.28063774774361L110.62579260665346,103.47760125375325L110.60990410534777,112.76160563435153L92.62795578277411,112.44305074722243L92.804372935203,127.8701239232613L87.67074337539327,128.40592619229807L86.33063047216012,131.4634933025308L87.36995760929555,140.00004190388228L65.91445417368098,139.9635754159985L64.7189814202653,141.9229458061131L64.95456954307409,139.43993474028127L65.21316859880837,136.70827724301262L67.31757320278159,135.09780448208915L69.11023445354972,132.00937221115808L68.75685226933656,129.9968861236983L70.640461493096,125.78550711249383L73.68995798508114,121.97178149974602L75.53466777460936,121.001675343167L76.98490442827173,117.48147473524861L77.11475183549423,114.25079296967584L79.09259630837717,110.48475406604982L82.74202069449164,108.25450534054397L86.21502792817722,101.96777011163718L86.31528985020978,101.88118039830033L98.52204188783634,101.87375790708978Z"></path></g><g><path fill="#f4cae4" stroke="gray" d="M318.9536302096727,284.3224346761549L319.9398130493373,289.3819259807762L319.3919336939681,292.24496561356716L320.48769240470654,295.44155794736554L323.6653926658481,298.53143058095105L326.62394118484195,305.49783233432254L324.4658444040425,304.9347565617665L317.10672890272303,305.86886682900337L315.6384122303334,306.5313508467626L314.0769560675311,310.0705796417772L315.3031100648475,312.5195159677807L314.3300763297117,319.1106566253039L313.6518016877646,324.7183464597159L315.1316238266169,325.7149273105881L318.96184840000325,327.8957094772655L320.46577723049177,326.87638056016567L320.92380437158045,332.9328538567588L316.7308836649397,332.8866984869707L314.4807431524382,329.7921629473147L312.4618077279026,327.40109571076084L308.26340822770817,326.6174548198602L307.03396695425965,323.6838182549752L303.68478045488746,325.450601872182L299.29736257709067,324.6702134972843L297.46634977144663,322.13079334620465L293.9878637442074,321.6156898226483L291.4199532055918,321.7503158943707L291.10601833496526,320.01499827650093L289.21583455894137,319.8743773776659L286.7207919745899,319.54575044293745L283.32667936807746,320.3811152343428L280.94614356899814,320.2443699583572L279.5901421644593,320.7562465121228L279.88325761958185,314.12554018158215L278.0555320900701,312.06281011195676L277.65338864322905,308.6492697256261L278.46041493368796,305.3090168452694L277.3504113597099,303.17392542179726L277.24960155832196,299.696055197252L270.6016334602716,299.7441097037325L271.07883637879826,297.7547589833807L268.2835559077044,297.7757321173254L267.9882489351604,298.73239892725303L264.5903011731604,298.94773984675123L263.215671870539,302.16795545710954L262.39494859619583,303.5506557620275L259.3673672784255,302.76960429884525L257.559365405707,303.5478895253319L253.9367871080056,303.99551084257183L251.83840917694147,301.1038361456704L250.57938241830294,299.3171752618419L249.00696866839326,296.0073997022648L247.65535029869733,291.9007120167406L231.4879784011066,291.82745985364954L229.5665655018267,292.48954708279683L227.97935900932202,292.3865340056915L225.71771303035783,293.1269848636465L224.95013405348553,291.4182711396236L226.34393913354486,290.83679788643167L226.51542537177545,288.4376754635833L227.4117559971595,287.0234339111089L229.40548897134815,285.8675903308213L230.84476803790312,286.427870763611L232.7185154332659,284.32298424969974L235.7033621613175,284.3773924045936L236.0540049487538,285.9335659982335L238.10088222041327,286.90739318788366L241.32460434740585,283.46244350068014L244.51600159243162,280.78027836142286L245.90104060280504,279.02286070954125L245.71750101875637,274.5087110322609L248.09694105912496,269.1819772051849L250.60732426542677,266.3588950851106L254.2145619411778,263.7177186722319L254.8440753204971,261.9698903859183L254.98104515933937,259.96079552135143L255.87354062923586,258.0596473965825L255.58699972637777,254.95409962552228L256.2696574031678,250.0980447250767L257.34076154291466,246.67761137177646L258.9816602122455,243.74499363308786L259.3065526699795,240.4306112513065L259.7990962104564,236.6010204920196L261.9319905409088,233.81099568795292L264.8658844889111,232.04042854338806L269.37438370424456,233.9088473348114L272.86382731859123,235.93624775415188L276.87156480311717,236.47741362209632L280.95874479417165,237.54910534798222L282.59690406672564,234.2309705751272L283.34969030100297,233.8076972742561L285.8463765234206,234.35959251381112L291.94591738674626,231.61525416480515L294.1073014436779,232.7790012710896L295.8813347963635,232.61403154291045L296.7031538294173,231.27639805650927L298.7396213933248,230.80491507391673L302.8613177837675,231.38366936533936L306.3748680897504,231.5101902698143L308.1834178418243,230.92705570554548L311.5024709766511,235.46589832604252L313.96244928225894,236.13184466758904L315.4291223165824,235.209271367357L317.9625164558097,235.57085244761691L321.013656585861,234.408511710861L322.3148700548629,236.75538673286306L327.1383998995337,240.40426370767773L326.80638501017995,246.8190835093633L329.0022854664998,247.56149605192297L327.24140121834307,249.50823683829216L325.1364487350145,250.96405905074215L323.04190595943794,253.82202169116346L321.88916779574106,256.36938698672935L321.5807117186682,260.7672762847945L320.31127525227765,262.8607772717287L320.265801265782,266.99185466889304L318.6901002397401,268.5198540411478L318.48683699889807,271.78157750308173L317.73459864397614,272.2043194949426L317.2272623609042,275.20478682543194L318.6051789396579,277.6990246307995Z"></path></g><g><path fill="#fdcdac" stroke="gray" d="M386.0420051539908,268.86625773741156L382.7980114908496,264.34510195399815L382.73281384756064,244.3807681266845L387.5212794134877,238.15487291411222L389.0197294504226,236.4235748434415L392.5321839976948,236.32193855479935L397.4148848127454,232.4468546218718L404.55210917514046,232.2048743853836L420.0340839991642,215.6524172193261L423.85444674415385,211.02994605482135L426.3275741542906,207.6220890036578L426.3281220336461,204.7216706099654L426.32976567171215,199.1008611059325L426.34894144915006,196.79986196516845L426.38290996918295,196.70875951552296L428.133932388943,196.59864711862448L430.65856045848443,195.76780545636146L433.56341680065213,195.20452817718035L436.15598191025936,193.28829118765987L438.23354042581946,193.2731666606112L438.3579090394883,194.82068891951818L437.85166851512713,198.0725176559905L437.8724879306311,201.0051262452369L436.7159146114467,203.01751396597905L435.17199058801623,209.0267887068902L432.5339514919134,215.21695331290613L429.14696131702067,222.27297812139685L424.4456085685973,230.34822444487264L419.7678146324548,236.50433275626142L413.3247534133126,243.99239924651252L407.8415768247773,248.43157929977951L399.6458495478089,253.87407909739244L394.5390660764123,258.04156714538107L388.5430744112514,264.67880064197453L387.27911673841453,267.5683944383973Z"></path></g><g><path fill="#e6f5c9" stroke="gray" d="M372.9865879948974,285.29420018187267L365.1228756072827,279.8023930394245L364.7492218869209,276.61856974814583L344.8825685818771,265.4492340986071L343.95720035065847,264.8475699377232L343.90186453576615,259.04090566092344L345.47099100954364,256.8208608868396L348.16710531731565,253.1940319534345L350.1608382915043,249.1990668765353L347.75071700723504,242.9039592845811L347.109698161453,240.14956377964654L344.5122021376475,236.33677211091572L347.882755931879,233.05448424031667L351.59628220257173,229.429702949367L354.44196757435947,230.35317684177028L354.44196757435947,233.43990621316198L356.3140713316561,235.24883803814575L360.127311645026,235.24883803814575L367.0623685252898,239.91351576951502L368.7942151676119,239.96896060062386L370.07680073853135,239.8174465366491L371.2898056313188,240.4509207239204L374.9436130522762,240.8823409711552L376.56259654739233,238.5947318909441L381.5680223380457,236.2977652408537L383.77761977824974,238.1537745871497L387.5212794134877,238.15487291411222L382.73281384756064,244.3807681266845L382.7980114908496,264.34510195399815L386.0420051539908,268.86625773741156L382.20520602834006,271.0545781046455L380.85249189993345,273.3427129001813L378.79849219665414,273.7447023362862L378.0215992707406,277.6101220237076L376.26235866064997,279.8249024841642L375.19289815896923,283.4789272566829Z"></path></g><g><path fill="#fdcdac" stroke="gray" d="M288.63289092482853,211.97952028322464L286.732845320408,210.38278591181734L286.38110677426096,208.65822279484564L287.2708628473806,206.34697261521748L287.25497434607485,204.07737651718986L284.0948062243051,200.59478189140006L283.4740589146718,198.20709892121778L283.5398044373161,196.8540738269171L281.5263478063342,195.20564710290847L281.46553319788813,191.95282297507907L280.31717806903424,189.78817196767608L278.3930257729775,190.11268265951446L278.94528816318973,188.0492650864315L280.36429569359603,185.70407275568493L279.74354838396266,183.36948877355036L281.54442782506135,181.63815119987805L280.4020993691165,180.3179079091414L281.8512402640681,176.82127766731867L284.35285740068406,172.638160789217L289.07722108203296,173.0358643865095L288.8076644391913,150.2137041376585L288.8750535999017,147.7710783896399L295.1756661866479,147.75358699200126L295.1756661866479,136.03314222793574L317.2004162724911,136.03314222793574L338.45813526081747,136.03314222793574L360.18812625347203,136.03314222793574L361.9550371745378,141.8108488602923L360.7535377482131,142.87548547097282L361.54960645156456,148.88983714127204L363.560871565125,155.8168615571045L365.6482919090818,157.23917066133637L368.64683562101766,159.37057030870432L365.87401820349396,162.65351582226836L361.83888675119954,163.59714083459517L360.1130667817864,165.35472734239124L359.5728577373924,169.15479342627515L357.21314135381704,177.51176018355687L357.79553710857454,179.77890476322443L356.92276529547144,184.62803257727L354.6950878365401,190.1682575984148L351.39082744430823,192.94655181830336L349.04097288912953,197.2206540755372L348.49090201633885,199.50320244724867L345.89559750995477,201.06533147008685L344.2744224974172,206.88934959620636L344.2842843258139,207.55210486291276L343.5260192979829,207.44212459957237L343.619706667751,204.67494198595736L342.96170356195256,202.76358696765095L340.1395770024456,200.56355596399231L339.48157389664715,196.5382776837146L340.1395770024456,192.40633258468606L337.60015619030924,192.02122268088357L337.2237630731705,193.27204631923541L333.9321039061122,193.56050675586815L335.24865799706447,195.19389834249228L335.71928636332666,198.55215683527825L332.70923718492804,201.61599920687385L329.9818937539,205.6298592579124L327.1597671943931,206.20246042257278L322.55100605702705,202.95514933328556L320.4822136111528,204.10186168492402L319.91789787512255,205.72493444083713L317.0957713156156,206.77488552948597L316.907848696724,207.91921539515897L311.4526139553125,207.91921539515897L310.70037560039054,206.77488552948597L306.749617568823,206.58372611882206L304.7745124927169,207.53766337179854L303.26948790351764,207.0610326729637L300.4479092233661,203.81525293520895L299.5072003701971,202.28570331549187L295.5569902179849,203.0503658742759L294.05196562878564,205.6298592579124L292.64117628870986,210.5868826950844L290.7603064617273,211.6336663961245L289.0777689613883,212.23776472568937Z"></path></g><g><path fill="#fff2ae" stroke="gray" d="M288.8076644391913,150.2137041376585L289.07722108203296,173.0358643865095L284.35285740068406,172.638160789217L281.8512402640681,176.82127766731867L280.4020993691165,180.3179079091414L281.54442782506135,181.63815119987805L279.74354838396266,183.36948877355036L280.36429569359603,185.70407275568493L278.94528816318973,188.0492650864315L278.3930257729775,190.11268265951446L280.31717806903424,189.78817196767608L281.46553319788813,191.95282297507907L281.5263478063342,195.20564710290847L283.5398044373161,196.8540738269171L283.4740589146718,198.20709892121778L280.0054347158292,199.1589025214148L277.22604274604106,201.4164862378208L273.26542288607686,207.4871172921397L268.1087823933416,210.05885075438795L262.81791145854095,209.7143348428607L261.2728916763997,210.22415295583107L261.8152922382152,212.17570030498848L258.95864927932,214.112141020759L256.6318056570669,216.27254547757587L249.73455245232358,218.38780683889166L248.36594982261124,217.1357986789581L247.4586616101198,217.02797874834803L246.44837207881892,218.44969920533092L241.91905344798147,218.86522112417674L242.77703251848968,217.3680093108601L241.05011679036585,213.55343388226615L240.27815477865062,211.26003487212625L237.89214018601757,210.3184467786067L234.658008351273,207.0788112589294L235.84855019049036,204.45519001074544L238.34523641290795,205.01425345494218L239.89135195375994,204.61819846426397L242.9512581534971,204.6727167833183L239.9691508222224,199.60865439584836L240.1696746662875,195.89810778416603L239.80369125690083,192.18379946190925L237.62532293995275,188.58942591390618L238.17320229532203,185.94001108028664L234.65965198933912,185.81050346616496L234.67170533515724,182.18314715683505L232.3908835787551,180.09000491473083L234.75662663523946,172.61710544942406L241.74482781297405,167.2386802058298L242.03356023325364,159.77604198564057L244.14453938949129,148.02058605723488L245.33617698741938,145.50840733843125L243.05645098972798,143.50252053176985L242.9687902928689,141.6370995630191L240.91862574507724,140.10943212604175L239.5730340482904,130.91784132617366L245.1044240200982,127.66059704821924L266.9560442296447,139.01137115285252Z"></path></g><g><path fill="#fdcdac" stroke="gray" d="M247.75670797944065,423.1348624518155L250.3810500916593,420.0569558099013L252.5446256660124,421.7587708936728L253.46835025916494,424.4263235565744L255.92668492670668,424.88219202766055L259.3712024339131,426.06619186833984L262.3144103309566,425.6082390743219L267.20478145698235,422.4140501392558L267.21080812989146,399.77517034623213L268.689534510033,400.68200068805015L271.9379112080172,406.4441894871052L271.43331432172215,410.16443426056185L272.6556331635509,412.3161358491682L276.5800929860607,411.6901722132088L279.32003764226226,408.9584419621584L281.91424638993556,407.1222033872494L283.2554550518795,404.2093704568683L285.9280105473706,402.80366474086793L288.2373220302519,403.539534682644L290.85454171085075,405.2402025440134L295.31373178420097,405.54116326597443L298.8174202617872,404.1262143207214L299.3713262900655,402.23499170226376L300.33504607616,399.34447880574635L303.31605764872404,398.86160167762466L304.96298299096395,396.6014263375201L306.7874212443435,392.607668910347L311.70628209684844,388.15784428007595L319.45877497532314,383.79148488245926L321.68754819296515,383.8559378011219L324.3387363935969,384.85826094267173L326.18508982119124,384.14810799529135L329.09706859497874,384.73926794810507L331.7214107071973,393.11414172974514L333.1469927898681,397.3751222658075L332.1706717786001,404.1110408660883L332.6385607480854,406.2932007095999L329.8739615208923,405.1794175788202L328.29004230451983,405.61292591645713L327.77284419305124,407.3855405840211L326.2765856735379,409.6786095940148L326.3280863329426,411.7963009771913L329.59783032578616,415.1301297655605L332.8045681927623,414.46466047002355L333.92005056029404,411.73495290235303L338.07516759141436,411.7864849227002L336.706564961702,416.2672377013389L336.0589715636555,421.4170627730081L334.64160767131534,424.23194169128806L330.9028789502757,427.3955296607087L329.8323226898842,428.3042470569756L327.5104099818294,431.5070140785257L325.9818265803492,434.76300883334125L322.8748027560503,439.332333346775L316.6832181610226,445.9729810099524L312.8162856708265,449.86948791194345L308.6787007790781,452.84186957181043L302.9528136361142,455.38879291727153L300.15972468244183,455.7310015877289L299.4524124346601,457.56138356348424L296.12294959208134,456.58677047820686L293.4109467830036,457.8427978296757L287.47248245015646,456.5709477469014L284.1534293153296,457.3751727179216L281.885208784101,457.02998726815224L276.2343811128227,459.64030895091264L271.5571350560356,460.6913151542366L268.1723363985644,463.2068117641319L265.6800332109898,463.3676234401533L263.3619556584226,460.9929172510805L261.51012343727456,460.8713266450556L259.15040705369927,457.9135038538351L258.891807997965,458.8301847125766L258.1636763346793,457.0544006991801L258.19435757857997,453.19827953230845L256.4142975529853,448.82332152650355L258.1823042327618,447.63945693705506L258.03930772101046,442.6785210471795L254.45124582269733,436.6841654102037L251.69815206196694,431.30857720417544L251.68993387163638,431.2921489272644ZM316.97195058130217,425.5030371178977L314.5799093157601,423.57671988063964L312.0191212087643,424.85154065289316L309.0507108613738,427.3032217254216L306.129418138545,431.2921489272644L310.2390611831696,436.17067716476834L312.19937351668074,435.5380063718087L313.20692365120476,433.50879027962515L316.2602552986775,432.5197642768058L317.19165020280525,430.45739748281494L318.87254406507805,427.3955296607087Z"></path></g><g><path fill="#b3e2cd" stroke="gray" d="M316.97195058130217,425.5030371178977L318.87254406507805,427.3955296607087L317.19165020280525,430.45739748281494L316.2602552986775,432.5197642768058L313.20692365120476,433.50879027962515L312.19937351668074,435.5380063718087L310.2390611831696,436.17067716476834L306.129418138545,431.2921489272644L309.0507108613738,427.3032217254216L312.0191212087643,424.85154065289316L314.5799093157601,423.57671988063964Z"></path></g><g><path fill="#b3e2cd" stroke="gray" d="M329.09706859497874,384.73926794810507L326.18508982119124,384.14810799529135L324.3387363935969,384.85826094267173L321.68754819296515,383.8559378011219L319.45877497532314,383.79148488245926L315.96604408484427,381.12428247160966L311.729293029774,380.2200018096589L310.11743196627765,376.49388965513947L310.10373498239346,374.4284942889098L307.7577155827024,373.7993433209318L301.5573649179887,367.40148205960725L299.8348322247079,364.04812016179363L298.732498961705,363.01668459766256L296.6231634435334,358.4073495297796L302.7468109984954,359.0374094792646L304.52687102409004,359.70068571713557L306.37651172781653,359.5670745809241L309.41066759785133,355.8467478992738L314.17557435149763,351.13807881561775L316.1369824437195,350.68854351088424L316.8032037398484,348.7109076431717L319.9222809099655,346.44195147644484L324.07246702688747,345.6633079354901L324.4269449698113,347.78604041666705L328.99680667294615,347.67269163277075L331.5356796057272,348.8756732145766L332.71635961654783,350.2871426707036L335.32536110681616,350.70224964925205L338.17104647860396,352.5386949811734L338.1836477037774,359.8037856049689L337.11528296080746,363.80346093486344L336.880242717354,368.1349101377641L337.7606848414324,369.85719730371676L337.14158116986516,373.28979597852344L336.3142833432576,373.8215549114957L334.86952548314895,378.04714029379426Z"></path></g><g><path fill="#fff2ae" stroke="gray" d="M319.45877497532314,383.79148488245926L311.70628209684844,388.15784428007595L306.7874212443435,392.607668910347L304.96298299096395,396.6014263375201L303.31605764872404,398.86160167762466L300.33504607616,399.34447880574635L299.3713262900655,402.23499170226376L298.8174202617872,404.1262143207214L295.31373178420097,405.54116326597443L290.85454171085075,405.2402025440134L288.2373220302519,403.539534682644L285.9280105473706,402.80366474086793L283.2554550518795,404.2093704568683L281.91424638993556,407.1222033872494L279.32003764226226,408.9584419621584L276.5800929860607,411.6901722132088L272.6556331635509,412.3161358491682L271.43331432172215,410.16443426056185L271.9379112080172,406.4441894871052L268.689534510033,400.68200068805015L267.21080812989146,399.77517034623213L267.20916449182533,382.3611976791345L272.6090634183445,382.1552146559055L272.77068782817844,361.3780824199162L276.849101749547,361.187145001404L285.29685352998524,359.1698000268187L287.3903005468511,361.54597587980345L290.8879623515283,359.28666331005724L292.5496804363632,359.27399767825625L295.63807636257957,357.9777488964282L296.6231634435334,358.4073495297796L298.732498961705,363.01668459766256L299.8348322247079,364.04812016179363L301.5573649179887,367.40148205960725L307.7577155827024,373.7993433209318L310.10373498239346,374.4284942889098L310.11743196627765,376.49388965513947L311.729293029774,380.2200018096589L315.96604408484427,381.12428247160966Z"></path></g><g><path fill="#f4cae4" stroke="gray" d="M267.21080812989146,399.77517034623213L267.20478145698235,422.4140501392558L262.3144103309566,425.6082390743219L259.3712024339131,426.06619186833984L255.92668492670668,424.88219202766055L253.46835025916494,424.4263235565744L252.5446256660124,421.7587708936728L250.3810500916593,420.0569558099013L247.75670797944065,423.1348624518155L243.68486861033654,418.4381429772005L241.54101669277668,413.9296717028451L240.3312990761214,407.96375956974384L238.98077646513627,403.5565156881206L237.14483274529397,394.27542470463334L237.02210776969125,387.14139676254945L236.32082219481862,383.909159560507L234.18902362307693,381.4750598361771L231.36141827001632,376.6170166492368L228.48121649884024,369.6104633760949L227.28574374542455,365.9641393927484L222.82764943078513,360.3223235846148L222.495086662076,355.9104428080619L225.1320299994681,354.8195509402658L228.41163582070834,353.8431687190576L231.96353768156712,354.01442975506495L235.2294465189231,356.60789577324766L236.0578401042414,356.2042925499479L258.26667765348867,355.9569253024639L262.0629337068421,358.7099602410314L275.3270929003313,359.52446092086325L285.39601969330704,357.18055568245154L289.88260373442574,355.8754388240353L293.43505347463986,356.20601456733925L295.59753329028223,357.5006239400618L295.63807636257957,357.9777488964282L292.5496804363632,359.27399767825625L290.8879623515283,359.28666331005724L287.3903005468511,361.54597587980345L285.29685352998524,359.1698000268187L276.849101749547,361.187145001404L272.77068782817844,361.3780824199162L272.6090634183445,382.1552146559055L267.20916449182533,382.3611976791345Z"></path></g><g><path fill="#fdcdac" stroke="gray" d="M66.63491552599152,184.44936030461156L64.37546106444879,180.05380810820554L61.64209096051168,178.0387142584882L64.05166436542558,176.96190018168855L66.7061398421895,172.9749943844389L68.00790119054682,170.05002130249733L69.88384010333108,168.21943118063524L72.60680049951617,168.71290697302794L75.28045175371803,167.46737154547714L78.33981007409983,167.40448617299927L80.95757763405405,169.08401200628788L84.59440079499501,170.59514030701882L87.90907089497888,174.78154625697172L91.52452676106047,178.6769907969573L91.77600338517495,182.19443998417535L92.85642147396308,185.4235962775123L94.90713390111013,187.0048866637457L95.37557074995081,189.17881396323943L95.12354624648097,190.92756779985208L94.3324084573278,191.24397027946907L91.34482233249936,190.80076313950605L90.93391281597243,191.42458071938364L89.72583883738326,191.5496488297499L85.78822991034458,190.1817299881389L83.14361626197729,190.1239100926878L73.01880577475383,189.88811559721955L71.54994122300891,190.52018253106226L69.73591267738138,190.3394598587068L66.83324785263518,191.25350617012128L65.93472570982962,186.94749898145812L70.9215236024004,187.0662100801762L72.23807769335266,186.2777991083962L73.21987749817436,186.23163967478865L75.25031838917273,184.9312136225624L77.60072082370674,186.12130105116321L79.98125662278606,186.22038103988564L82.35193059346874,184.95656952845303L81.24521429562289,183.3266140639539L79.43885606097052,184.27630159350176L77.73878642125979,184.2498052804135L75.57630660561743,182.8616721339888L73.83898116974159,182.9525293233163L72.60186958531784,184.28814020138708Z"></path></g><g><path fill="#b3e2cd" stroke="gray" d="M95.12354624648097,190.92756779985208L95.37557074995081,189.17881396323943L94.90713390111013,187.0048866637457L92.85642147396308,185.4235962775123L91.77600338517495,182.19443998417535L91.52452676106047,178.6769907969573L93.36868867123331,177.64436988163584L94.289673867609,174.30147131550484L96.02645142412948,174.17019802095786L99.85229296267283,175.75246749205542L102.94233252695531,174.62930683414606L105.05988623545741,175.0064613912503L105.88225314786663,173.74274827258452L127.86591228205717,173.6563299943516L129.08439596839835,169.6683956122057L128.13546892489882,168.96527181836376L125.4914031558869,144.0272482015253L122.84678950751962,118.36972935972156L131.23208304144575,118.26094655823803L149.71314945676076,131.33573196300392L168.19476375143114,144.20286913531828L169.4976208584992,146.9416184991188L172.90871772502805,148.60910956640066L175.44594701974296,149.55578829758804L175.50840526625507,153.2506807852711L181.586030955366,152.68303680807924L181.6013715773163,165.95197162681353L178.60556726215736,169.768805929917L178.13932193073813,173.27874391319648L173.2725096169932,174.18042763268124L165.79669581298,174.66850466955293L163.77118583617997,176.68574301653564L160.25982704761853,176.90860162260577L156.746824620991,176.9346841873946L155.37931774998938,175.8461112778313L152.36324189868176,176.65398375868818L147.2427614434009,179.0042139753927L146.1974076333564,180.77246069121867L141.9464117150465,183.30348370664836L141.20129579174434,184.7520182404233L138.90513341339187,185.89890782518466L136.25558885082626,185.13968132528962L134.75439941711454,186.51420107154001L133.95011252343252,190.36864641550858L129.6015940798669,195.0126204594099L129.7281542109572,196.9071661270797L128.2335393295099,199.27386314371702L128.59678334211972,202.51073710499352L126.33623312186626,203.335427911985L125.05638694772372,204.03786565456568L124.20881758496753,201.65612191854123L122.62654200666117,202.28458921440426L121.68145011864925,202.17596092495813L120.67335210476986,203.80078214792252L116.44207984325325,203.75514274173727L114.92554978759122,202.91895455832778L114.21166298754511,203.4250570560934L112.53789155689209,201.81938941025032L112.82826761523779,200.15923944835876L112.1439663003816,199.50822412055825L110.97698327344514,200.05716899326987L111.19065622203914,198.24171968328466L112.31380890054606,196.80377422328132L110.06859930224296,194.4602630475646L109.41552711064281,192.9157354302626L108.19813918301239,191.68423939163344L107.10183259291854,191.53731074524796L105.78527850196627,192.32281650374472L104.01508030476828,193.07205202423637L102.51279511234583,194.28393695483874L100.16787147136552,193.83659309980686L98.64695838086053,192.41417949223026L97.73857440965833,192.22752396716947L96.30860929214464,192.9740058851573L95.43967263452902,192.98072925350874Z"></path></g><g><path fill="#cbd5e8" stroke="gray" d="M64.7189814202653,141.9229458061131L65.91445417368098,139.9635754159985L87.36995760929555,140.00004190388228L86.33063047216012,131.4634933025308L87.67074337539327,128.40592619229807L92.804372935203,127.8701239232613L92.62795578277411,112.44305074722243L110.60990410534777,112.76160563435153L110.62579260665346,103.47760125375325L131.23208304144575,118.26094655823803L122.84678950751962,118.36972935972156L125.4914031558869,144.0272482015253L128.13546892489882,168.96527181836376L129.08439596839835,169.6683956122057L127.86591228205717,173.6563299943516L105.88225314786663,173.74274827258452L105.05988623545741,175.0064613912503L102.94233252695531,174.62930683414606L99.85229296267283,175.75246749205542L96.02645142412948,174.17019802095786L94.289673867609,174.30147131550484L93.36868867123331,177.64436988163584L91.52452676106047,178.6769907969573L87.90907089497888,174.78154625697172L84.59440079499501,170.59514030701882L80.95757763405405,169.08401200628788L78.33981007409983,167.40448617299927L75.28045175371803,167.46737154547714L72.60680049951617,168.71290697302794L69.88384010333108,168.21943118063524L68.00790119054682,170.05002130249733L67.53343766879705,166.97219465171452L69.06256894963258,164.1483466271787L69.74358298835655,158.7355435719502L69.13762842131817,153.02285180396512L68.47579016003213,150.13636051358634L69.02312163604601,147.23160668720263L67.60685350241653,144.45394700507006Z"></path></g><g><path fill="#b3e2cd" stroke="gray" d="M172.95309595281296,225.28340388830242L168.42487308068624,225.92599044707896L167.07599410776717,222.1223416851821L167.32527921446018,209.41581713577062L166.22130231339116,208.27237508985166L166.01365603770623,205.5453438653626L164.11087103650888,203.59706551214867L162.43709960585588,201.9531123499643L163.1345500252409,199.01714392440113L165.01870712835571,198.38522046693058L166.13473737524282,195.9422850828507L168.81277166428765,195.4193471299472L170.00988805576944,193.7458765593393L171.84911905174394,192.10475573822652L173.8127186613873,192.09074045356252L177.99084662543308,195.31306021580357L177.77717367683906,197.17092480169072L179.00935434706446,200.48214279271912L177.93003201698707,202.72516060028966L178.50694897819088,204.22261319156178L175.8497341046501,207.66374501365908L174.1617178107575,209.36587483895119L173.12896522588647,212.86329396562252L173.2675787027949,216.38427231590885Z"></path></g><g><path fill="#f4cae4" stroke="gray" d="M239.5730340482904,130.91784132617366L240.91862574507724,140.10943212604175L242.9687902928689,141.6370995630191L243.05645098972798,143.50252053176985L245.33617698741938,145.50840733843125L244.14453938949129,148.02058605723488L242.03356023325364,159.77604198564057L241.74482781297405,167.2386802058298L234.75662663523946,172.61710544942406L232.3908835787551,180.09000491473083L234.67170533515724,182.18314715683505L234.65965198933912,185.81050346616496L238.17320229532203,185.94001108028664L237.62532293995275,188.58942591390618L236.07865951974543,188.91196224775268L235.90224236731655,190.69919922157726L234.88373464568514,190.82320724695518L231.1762350479015,184.6669202250896L229.89036220084992,184.44315989154268L225.60649352121789,187.5898801882127L221.3642636725939,185.9478937545034L218.41557698199665,185.61959799786104L216.83439716240107,186.41007666312217L213.6227283812266,186.23895773773967L210.3907880639035,188.63606899705863L207.5966033515204,188.7731794999213L200.96616739284192,185.86624955931813L198.36921924839174,187.2479139584551L195.57339089794255,187.15172076033372L193.51884331530792,185.02530980108372L188.02744853644208,182.9214918618509L182.13884122493354,183.5894817953601L180.71216338355205,184.80893508998355L179.94184500990292,188.04589194118665L178.3710748980593,190.3108340091738L177.99084662543308,195.31306021580357L173.8127186613873,192.09074045356252L171.84911905174394,192.10475573822652L170.00988805576944,193.7458765593393L170.13370879008286,189.90608225330593L163.8166598226756,188.63213530259083L163.64626934315578,185.91016911442046L160.5611606930716,182.22831787679158L159.82535871881072,179.65387745197796L160.25982704761853,176.90860162260577L163.77118583617997,176.68574301653564L165.79669581298,174.66850466955293L173.2725096169932,174.18042763268124L178.13932193073813,173.27874391319648L178.60556726215736,169.768805929917L181.6013715773163,165.95197162681353L181.586030955366,152.68303680807924L189.31222562478294,150.09332445210248L205.17497660078837,138.59555379958846L223.94861059187056,127.29035673651276L232.61551411445652,129.86174778681615L235.69733548840844,133.12494029541583Z"></path></g><g><path fill="#cbd5e8" stroke="gray" d="M172.95309595281296,225.28340388830242L173.2675787027949,216.38427231590885L173.12896522588647,212.86329396562252L174.1617178107575,209.36587483895119L175.8497341046501,207.66374501365908L178.50694897819088,204.22261319156178L177.93003201698707,202.72516060028966L179.00935434706446,200.48214279271912L177.77717367683906,197.17092480169072L177.99084662543308,195.31306021580357L178.3710748980593,190.3108340091738L179.94184500990292,188.04589194118665L180.71216338355205,184.80893508998355L182.13884122493354,183.5894817953601L188.02744853644208,182.9214918618509L193.51884331530792,185.02530980108372L195.57339089794255,187.15172076033372L198.36921924839174,187.2479139584551L200.96616739284192,185.86624955931813L207.5966033515204,188.7731794999213L210.3907880639035,188.63606899705863L213.6227283812266,186.23895773773967L216.83439716240107,186.41007666312217L218.41557698199665,185.61959799786104L221.3642636725939,185.9478937545034L225.60649352121789,187.5898801882127L229.89036220084992,184.44315989154268L231.1762350479015,184.6669202250896L234.88373464568514,190.82320724695518L235.90224236731655,190.69919922157726L238.0712967352233,192.93254444771395L237.47410823787087,193.94410198660677L237.1848279382359,195.804156982094L232.56894436925012,200.12577441065838L231.1214471123646,203.6816719732783L230.3483893419386,206.57261160071232L229.18633722920046,207.81036695844412L228.08071669006534,211.69408413262573L225.15065789755067,213.9764919643418L224.30144489672836,216.7763794553286L223.07090786456905,219.00279181293266L222.55864066729882,221.29782641866004L218.79470949591217,223.15731274280154L215.7189147948693,220.8893348241316L213.64190415866454,220.98097508153353L210.37873471808538,224.21008449687463L208.79262398429142,224.25970764295033L206.1863618908,229.57445992323863L204.7772161887903,233.46739556894522L199.0891327213469,235.44556658784785L197.0099305677207,235.15651520358335L194.90333444632597,236.38786507348019L190.52084748272745,236.26754840408745L187.58750141408058,232.82959050281795L185.78388257620506,228.84730758541335L181.90489674019088,225.21781456374816L177.78813126394644,225.28615970954954Z"></path></g><g><path fill="#b3e2cd" stroke="gray" d="M237.62532293995275,188.58942591390618L239.80369125690083,192.18379946190925L240.1696746662875,195.89810778416603L239.9691508222224,199.60865439584836L242.9512581534971,204.6727167833183L239.89135195375994,204.61819846426397L238.34523641290795,205.01425345494218L235.84855019049036,204.45519001074544L234.658008351273,207.0788112589294L237.89214018601757,210.3184467786067L240.27815477865062,211.26003487212625L241.05011679036585,213.55343388226615L242.77703251848968,217.3680093108601L241.91905344798147,218.86522112417674L239.16322029047421,224.45819143532643L237.84885771694343,225.45866887832838L237.42589485459837,229.72801643806724L237.97103481319076,232.04537852829446L237.52999193211855,233.6840047030145L240.11926976559351,236.5537756215876L240.5860629763681,238.5255433480714L242.60883355639135,241.3587283509074L245.11428584849483,243.12451586217105L245.35918792034488,245.6263561296992L245.93720064025942,247.2155207235562L245.54272750439358,250.1753311360052L241.18927814662965,248.88001916815043L236.7596735584694,247.43319631656667L229.84543609370962,247.2182622666818L229.16332629627493,246.91942844589173L225.92042839184444,247.62564516186458L222.5909655492656,246.8909152631909L219.98689497319563,247.2511607103707L211.07180210262746,247.1261458976076L211.87170596146655,242.79587258127393L209.73059344068355,239.16742038410158L207.23061994213373,238.23614838142305L206.11732909202345,235.77470854880312L204.71421006292286,234.98670160776496L204.7772161887903,233.46739556894522L206.1863618908,229.57445992323863L208.79262398429142,224.25970764295033L210.37873471808538,224.21008449687463L213.64190415866454,220.98097508153353L215.7189147948693,220.8893348241316L218.79470949591217,223.15731274280154L222.55864066729882,221.29782641866004L223.07090786456905,219.00279181293266L224.30144489672836,216.7763794553286L225.15065789755067,213.9764919643418L228.08071669006534,211.69408413262573L229.18633722920046,207.81036695844412L230.3483893419386,206.57261160071232L231.1214471123646,203.6816719732783L232.56894436925012,200.12577441065838L237.1848279382359,195.804156982094L237.47410823787087,193.94410198660677L238.0712967352233,192.93254444771395L235.90224236731655,190.69919922157726L236.07865951974543,188.91196224775268Z"></path></g><g><path fill="#cbd5e8" stroke="gray" d="M163.1345500252409,199.01714392440113L162.43709960585588,201.9531123499643L164.11087103650888,203.59706551214867L166.01365603770623,205.5453438653626L166.22130231339116,208.27237508985166L167.32527921446018,209.41581713577062L167.07599410776717,222.1223416851821L168.42487308068624,225.92599044707896L164.01389639060852,227.10168261516628L162.7910296694244,225.16655463794726L161.3309311873654,221.6676211742301L160.89591497920222,218.92157632244337L162.10672835456822,213.9393946264828L160.73264693130218,211.91911085373718L160.2105179056353,207.54821677989932L160.21983185467658,203.51022837594977L157.9329834253654,200.63715901214104L158.33622263091715,198.8977000376368Z"></path></g><g><path fill="#e6f5c9" stroke="gray" d="M158.33622263091715,198.8977000376368L157.9329834253654,200.63715901214104L160.21983185467658,203.51022837594977L160.2105179056353,207.54821677989932L160.73264693130218,211.91911085373718L162.10672835456822,213.9393946264828L160.89591497920222,218.92157632244337L161.3309311873654,221.6676211742301L162.7910296694244,225.16655463794726L164.01389639060852,227.10168261516628L155.42479173648505,230.32401262202978L152.37858252063208,232.21092408890473L147.4416416493999,233.80549833021053L142.55784507563857,232.2439222929137L142.80658230297618,230.0730798271261L140.43042953873982,225.3291501796586L141.85929889754277,219.0983684833376L144.16806250106873,214.45371783128942L142.71453857127415,206.5620527474656L141.96723113055052,202.3737150446718L142.0959827790623,199.21024514787103L151.6126471818259,198.94737635309542L154.03317817384718,199.35421921690556L155.80228061233444,198.4533370352275Z"></path></g><g><path fill="#f4cae4" stroke="gray" d="M114.21166298754511,203.4250570560934L114.92554978759122,202.91895455832778L116.44207984325325,203.75514274173727L120.67335210476986,203.80078214792252L121.68145011864925,202.17596092495813L122.62654200666117,202.28458921440426L124.20881758496753,201.65612191854123L125.05638694772372,204.03786565456568L126.33623312186626,203.335427911985L128.59678334211972,202.51073710499352L131.0600489238598,203.7245302899387L132.01774203704522,205.56424896115038L134.48155549814066,206.73821110380106L136.39803748322225,205.34015546123857L138.9648522631271,205.1288263161345L142.71453857127415,206.5620527474656L144.16806250106873,214.45371783128942L141.85929889754277,219.0983684833376L140.43042953873982,225.3291501796586L142.80658230297618,230.0730798271261L142.55784507563857,232.2439222929137L140.06499400870854,232.30001854686537L136.2424397462974,231.2246866052594L132.72998519902524,231.2879505098105L126.23980635532128,232.2483220306234L122.43587999099267,233.83518396813915L117.0113264934819,235.85108331045052L115.95227569955316,235.70657447793872L116.37304704447673,231.17847572156452L116.8973675875651,230.4901902778126L116.73026438417747,228.32096914628897L114.40999531418876,226.01415595012656L112.66993048153608,225.64604738037883L111.07231428127939,224.13233979483127L112.2634039998521,221.6819703582179L111.71607252383824,219.01273638086164L111.96864490666346,217.40560315196265L112.83758156427908,217.3989689884786L113.16028250459155,214.98673736721088L112.73731964224649,213.91780036188246L113.26054442662411,213.14746363972864L115.29536835246546,212.48157145489506L113.94210634470343,208.0413848714704L112.67924443057737,205.7449496444466L113.11919155293884,203.85643837963636Z"></path></g><g><path fill="#fff2ae" stroke="gray" d="M83.14361626197729,190.1239100926878L85.78822991034458,190.1817299881389L89.72583883738326,191.5496488297499L90.93391281597243,191.42458071938364L91.34482233249936,190.80076313950605L94.3324084573278,191.24397027946907L95.12354624648097,190.92756779985208L95.43967263452902,192.98072925350874L96.30860929214464,192.9740058851573L97.73857440965833,192.22752396716947L98.64695838086053,192.41417949223026L100.16787147136552,193.83659309980686L102.51279511234583,194.28393695483874L104.01508030476828,193.07205202423637L105.78527850196627,192.32281650374472L107.10183259291854,191.53731074524796L108.19813918301239,191.68423939163344L109.41552711064281,192.9157354302626L110.06859930224296,194.4602630475646L112.31380890054606,196.80377422328132L111.19065622203914,198.24171968328466L110.97698327344514,200.05716899326987L112.1439663003816,199.50822412055825L112.82826761523779,200.15923944835876L112.53789155689209,201.81938941025032L114.21166298754511,203.4250570560934L113.11919155293884,203.85643837963636L112.67924443057737,205.7449496444466L113.94210634470343,208.0413848714704L115.29536835246546,212.48157145489506L113.26054442662411,213.14746363972864L112.73731964224649,213.91780036188246L113.16028250459155,214.98673736721088L112.83758156427908,217.3989689884786L111.96864490666346,217.40560315196265L110.41924208967927,217.26351737945453L109.30156820472602,219.48892340733755L107.75271326709719,219.46185724476456L106.68708792090403,218.2850177775494L107.04868829544773,216.06456413912187L104.75855259000433,212.67327236360276L103.32694383442453,213.2970114198882L102.1572214107112,213.42051893351294L100.64836166602433,213.73783979120387L100.70972415382568,211.7068326040592L99.83037778845807,210.25576961235961L100.00789069959768,208.64267933123912L98.82008825715721,206.30806658821558L97.29534001116463,204.3188747066744L92.91340092692148,204.31275418568612L91.63684202891116,205.3607309431362L90.12688652551354,205.48751530716044L89.1911085865429,206.68597659576153L88.55940368980218,208.22740079424904L85.63044065599824,210.6672956110052L83.22744180334878,207.38324366817344L81.0972868696732,205.2072434008856L79.69416784057259,204.48690270563577L78.32666096957098,203.38052140267183L77.7048179012269,200.91927436580318L76.90272252496634,199.69066795029016L75.31003723890797,198.7765728330586L77.7459088528796,196.05356162511617L79.40872269642522,196.15700259651638L80.83759205522819,195.21851469075472L82.0462139131727,195.20956333659882L82.90967177723462,194.46753956142948L82.4434264458154,192.6120200000114L83.0439022193001,192.02570779699948Z"></path></g><g><path fill="#cbd5e8" stroke="gray" d="M66.83324785263518,191.25350617012128L69.73591267738138,190.3394598587068L71.54994122300891,190.52018253106226L73.01880577475383,189.88811559721955L83.14361626197729,190.1239100926878L83.0439022193001,192.02570779699948L82.4434264458154,192.6120200000114L82.90967177723462,194.46753956142948L82.0462139131727,195.20956333659882L80.83759205522819,195.21851469075472L79.40872269642522,196.15700259651638L77.7459088528796,196.05356162511617L75.31003723890797,198.7765728330586L72.38490936059164,196.4410109711974L70.07833727448715,196.0714546044033L68.82040627455939,194.49440639049834L68.85273115652616,193.64227387561323L67.18224700200538,192.453413409394Z"></path></g><g><path fill="#fdcdac" stroke="gray" d="M111.96864490666346,217.40560315196265L111.71607252383824,219.01273638086164L112.2634039998521,221.6819703582179L111.07231428127939,224.13233979483127L112.66993048153608,225.64604738037883L114.40999531418876,226.01415595012656L116.73026438417747,228.32096914628897L116.8973675875651,230.4901902778126L116.37304704447673,231.17847572156452L115.95227569955316,235.70657447793872L114.51737966784114,235.75492780527264L108.87038715205044,233.13531068710924L103.89235532916558,228.94750026896656L99.2244232214197,225.93425607543483L95.53500364236325,222.3767081213701L96.84443530169574,220.611081586L97.1353592393968,219.00444924373718L99.60684301146742,216.00371494487305L102.1572214107112,213.42051893351294L103.32694383442453,213.2970114198882L104.75855259000433,212.67327236360276L107.04868829544773,216.06456413912187L106.68708792090403,218.2850177775494L107.75271326709719,219.46185724476456L109.30156820472602,219.48892340733755L110.41924208967927,217.26351737945453Z"></path></g><g><path fill="#b3e2cd" stroke="gray" d="M85.63044065599824,210.6672956110052L88.55940368980218,208.22740079424904L89.1911085865429,206.68597659576153L90.12688652551354,205.48751530716044L91.63684202891116,205.3607309431362L92.91340092692148,204.31275418568612L97.29534001116463,204.3188747066744L98.82008825715721,206.30806658821558L100.00789069959768,208.64267933123912L99.83037778845807,210.25576961235961L100.70972415382568,211.7068326040592L100.64836166602433,213.73783979120387L102.1572214107112,213.42051893351294L99.60684301146742,216.00371494487305L97.1353592393968,219.00444924373718L96.84443530169574,220.611081586L95.53500364236325,222.3767081213701L94.05901665899856,221.96728201288187L90.11483317969542,219.74355177578062L87.26092961757709,216.78301539176152L86.30214074568093,214.76203245352826Z"></path></g><g><path fill="#fdcdac" stroke="gray" d="M128.59678334211972,202.51073710499352L128.2335393295099,199.27386314371702L129.7281542109572,196.9071661270797L129.6015940798669,195.0126204594099L133.95011252343252,190.36864641550858L134.75439941711454,186.51420107154001L136.25558885082626,185.13968132528962L138.90513341339187,185.89890782518466L141.20129579174434,184.7520182404233L141.9464117150465,183.30348370664836L146.1974076333564,180.77246069121867L147.2427614434009,179.0042139753927L152.36324189868176,176.65398375868818L155.37931774998938,175.8461112778313L156.746824620991,176.9346841873946L160.25982704761853,176.90860162260577L159.82535871881072,179.65387745197796L160.5611606930716,182.22831787679158L163.64626934315578,185.91016911442046L163.8166598226756,188.63213530259083L170.13370879008286,189.90608225330593L170.00988805576944,193.7458765593393L168.81277166428765,195.4193471299472L166.13473737524282,195.9422850828507L165.01870712835571,198.38522046693058L163.1345500252409,199.01714392440113L158.33622263091715,198.8977000376368L155.80228061233444,198.4533370352275L154.03317817384718,199.35421921690556L151.6126471818259,198.94737635309542L142.0959827790623,199.21024514787103L141.96723113055052,202.3737150446718L142.71453857127415,206.5620527474656L138.9648522631271,205.1288263161345L136.39803748322225,205.34015546123857L134.48155549814066,206.73821110380106L132.01774203704522,205.56424896115038L131.0600489238598,203.7245302899387Z"></path></g><g><path fill="#e6f5c9" stroke="gray" d="M308.1834178418243,230.92705570554548L306.3748680897504,231.5101902698143L302.8613177837675,231.38366936533936L298.7396213933248,230.80491507391673L296.7031538294173,231.27639805650927L295.8813347963635,232.61403154291045L294.1073014436779,232.7790012710896L291.94591738674626,231.61525416480515L285.8463765234206,234.35959251381112L283.34969030100297,233.8076972742561L282.59690406672564,234.2309705751272L280.95874479417165,237.54910534798222L276.87156480311717,236.47741362209632L272.86382731859123,235.93624775415188L269.37438370424456,233.9088473348114L264.8658844889111,232.04042854338806L261.9319905409088,233.81099568795292L259.7990962104564,236.6010204920196L259.3065526699795,240.4306112513065L255.78259265624456,240.12431266019544L252.0739972997502,239.20201010821063L248.80918422110494,242.1105449463631L245.93720064025942,247.2155207235562L245.35918792034488,245.6263561296992L245.11428584849483,243.12451586217105L242.60883355639135,241.3587283509074L240.5860629763681,238.5255433480714L240.11926976559351,236.5537756215876L237.52999193211855,233.6840047030145L237.97103481319076,232.04537852829446L237.42589485459837,229.72801643806724L237.84885771694343,225.45866887832838L239.16322029047421,224.45819143532643L241.91905344798147,218.86522112417674L246.44837207881892,218.44969920533092L247.4586616101198,217.02797874834803L248.36594982261124,217.1357986789581L249.73455245232358,218.38780683889166L256.6318056570669,216.27254547757587L258.95864927932,214.112141020759L261.8152922382152,212.17570030498848L261.2728916763997,210.22415295583107L262.81791145854095,209.7143348428607L268.1087823933416,210.05885075438795L273.26542288607686,207.4871172921397L277.22604274604106,201.4164862378208L280.0054347158292,199.1589025214148L283.4740589146718,198.20709892121778L284.0948062243051,200.59478189140006L287.25497434607485,204.07737651718986L287.2708628473806,206.34697261521748L286.38110677426096,208.65822279484564L286.732845320408,210.38278591181734L288.63289092482853,211.97952028322464L289.0777689613883,212.23776472568937L292.80554009532057,214.40057485895787L295.80517956596714,216.63646735892002L295.8555844666611,218.43312104911195L299.54007313151925,221.30941780173873L301.8236342846982,223.6967086547329L303.2070296570055,227.00308321203954L307.30242783839054,229.18200504134285Z"></path></g><g><path fill="#fdcdac" stroke="gray" d="M259.3065526699795,240.4306112513065L258.9816602122455,243.74499363308786L257.34076154291466,246.67761137177646L256.2696574031678,250.0980447250767L255.58699972637777,254.95409962552228L255.87354062923586,258.0596473965825L254.98104515933937,259.96079552135143L254.8440753204971,261.9698903859183L254.2145619411778,263.7177186722319L250.60732426542677,266.3588950851106L248.09694105912496,269.1819772051849L245.71750101875637,274.5087110322609L245.90104060280504,279.02286070954125L244.51600159243162,280.78027836142286L241.32460434740585,283.46244350068014L238.10088222041327,286.90739318788366L236.0540049487538,285.9335659982335L235.7033621613175,284.3773924045936L232.7185154332659,284.32298424969974L230.84476803790312,286.427870763611L229.40548897134815,285.8675903308213L227.35258502677962,283.9817135435581L225.6968936148538,284.9061246493377L223.4856525365836,287.2802766735952L218.98646727029143,281.4590429343289L223.1574728027174,278.428959403258L221.09141975362002,274.80051622415175L222.97064594253646,273.42168311113545L226.6671879532127,272.7499152342814L227.1032999200866,270.31996513183464L230.03061931582445,272.95281008832575L234.86729826502403,273.18367829426523L236.54819212729686,270.5929709732652L237.24016375312817,266.94856040675114L236.64242737642036,262.67010581781085L234.05041014616853,259.4299003551984L236.4227277549173,253.0844325667709L235.0552208839157,251.99496903750753L230.9784506006132,252.44161563619778L229.4471278023562,249.60964681620854L229.84543609370962,247.2182622666818L236.7596735584694,247.43319631656667L241.18927814662965,248.88001916815043L245.54272750439358,250.1753311360052L245.93720064025942,247.2155207235562L248.80918422110494,242.1105449463631L252.0739972997502,239.20201010821063L255.78259265624456,240.12431266019544Z"></path></g><g><path fill="#fff2ae" stroke="gray" d="M219.98689497319563,247.2511607103707L222.5909655492656,246.8909152631909L225.92042839184444,247.62564516186458L229.16332629627493,246.91942844589173L229.84543609370962,247.2182622666818L229.4471278023562,249.60964681620854L230.9784506006132,252.44161563619778L235.0552208839157,251.99496903750753L236.4227277549173,253.0844325667709L234.05041014616853,259.4299003551984L236.64242737642036,262.67010581781085L237.24016375312817,266.94856040675114L236.54819212729686,270.5929709732652L234.86729826502403,273.18367829426523L230.03061931582445,272.95281008832575L227.1032999200866,270.31996513183464L226.6671879532127,272.7499152342814L222.97064594253646,273.42168311113545L221.09141975362002,274.80051622415175L223.1574728027174,278.428959403258L218.98646727029143,281.4590429343289L213.3559111351618,275.9190433851032L209.73497647552654,271.39339802924275L206.40825302972453,265.7314426263718L206.58412230279805,263.9111371681802L207.7801429355691,262.15946228911463L209.11148976911633,258.1703203371803L210.21546667018532,254.1080615009382L212.06401161520114,253.7913351452348L220.03456047711276,253.84722845513016Z"></path></g><g><path fill="#f4cae4" stroke="gray" d="M211.07180210262746,247.1261458976076L219.98689497319563,247.2511607103707L220.03456047711276,253.84722845513016L212.06401161520114,253.7913351452348L210.21546667018532,254.1080615009382L209.18928863757876,253.2817108962437Z"></path></g><g><path fill="#e6f5c9" stroke="gray" d="M326.62394118484195,305.49783233432254L328.91298113157467,306.9081062722464L331.096280362721,307.83587862380193L334.5786015454479,308.7696148781003L337.6878168871683,310.43522480862424L340.2738074445111,312.91297191831404L341.6670646452151,317.63719202511686L340.7334782236659,319.14746787279125L339.6322407193737,323.6754284712493L340.684716961038,328.316991696933L338.96108850904636,330.27130240877625L337.2977267861454,335.5003307007216L340.1784764366768,336.9617838469311L323.5530773979974,341.6235850329516L324.07246702688747,345.6633079354901L319.9222809099655,346.44195147644484L316.8032037398484,348.7109076431717L316.1369824437195,350.68854351088424L314.17557435149763,351.13807881561775L309.41066759785133,355.8467478992738L306.37651172781653,359.5670745809241L304.52687102409004,359.70068571713557L302.7468109984954,359.0374094792646L296.6231634435334,358.4073495297796L295.63807636257957,357.9777488964282L295.59753329028223,357.5006239400618L293.43505347463986,356.20601456733925L289.88260373442574,355.8754388240353L285.39601969330704,357.18055568245154L281.8211068995228,353.59806650081254L278.1245648888466,348.92299785453315L278.3771372716718,330.9147161731455L289.78508120917,330.98553772056766L289.3182879983955,329.04653020714534L290.1346282378956,326.94588344354776L289.17200421051183,324.3193361001763L289.79494303756667,321.60786956701827L289.21583455894137,319.8743773776659L291.10601833496526,320.01499827650093L291.4199532055918,321.7503158943707L293.9878637442074,321.6156898226483L297.46634977144663,322.13079334620465L299.29736257709067,324.6702134972843L303.68478045488746,325.450601872182L307.03396695425965,323.6838182549752L308.26340822770817,326.6174548198602L312.4618077279026,327.40109571076084L314.4807431524382,329.7921629473147L316.7308836649397,332.8866984869707L320.92380437158045,332.9328538567588L320.46577723049177,326.87638056016567L318.96184840000325,327.8957094772655L315.1316238266169,325.7149273105881L313.6518016877646,324.7183464597159L314.3300763297117,319.1106566253039L315.3031100648475,312.5195159677807L314.0769560675311,310.0705796417772L315.6384122303334,306.5313508467626L317.10672890272303,305.86886682900337L324.4658444040425,304.9347565617665Z"></path></g><g><path fill="#b3e2cd" stroke="gray" d="M337.6878168871683,310.43522480862424L343.0586782078529,311.47070061377286L344.16046359150045,313.0074581249139L346.01887036491286,315.601056717908L347.5529325599467,323.1877797174959L346.01887036491286,327.4431482443012L347.5529325599467,334.751046602484L349.4551696817887,334.6687581406891L351.4319183959609,336.4870560867977L353.7264371362472,340.57512490169313L354.1926824676665,347.8777529050686L351.8214606176284,349.0775294212252L350.14878494568615,353.0416388105572L346.5738721519019,349.5121557857235L346.16844142892865,345.49729459604134L347.3211795926255,342.85728012792407L347.00286168715604,340.58644874309647L344.8398339921583,339.15479558740356L343.33261788553756,339.6740763575854L340.1784764366768,336.9617838469311L337.2977267861454,335.5003307007216L338.96108850904636,330.27130240877625L340.684716961038,328.316991696933L339.6322407193737,323.6754284712493L340.7334782236659,319.14746787279125L341.6670646452151,317.63719202511686L340.2738074445111,312.91297191831404Z"></path></g><g><path fill="#f4cae4" stroke="gray" d="M347.5529325599467,323.1877797174959L351.6751768297448,322.735497740276L358.25904304321693,324.311502428091L359.689556040086,323.60439677642677L363.50334423281123,323.46066535124464L365.4554383759918,321.78383451103076L368.7427145082072,321.8754556328952L374.7332273798145,319.70754505031397L379.0921555311321,316.4757031335292L379.9786243281195,318.97401587620686L379.75344591306276,324.53981432083486L380.4300769169438,329.4586016207872L380.642654106827,338.26154221052354L381.6063738929215,341.03269027600635L379.97259765521045,345.086341732283L377.8468257563778,349.03989248427723L374.3584779007419,352.5815992187642L369.3497648339564,354.7582143439354L363.17352086087897,357.54430336692684L356.9835799039174,363.7317520749431L354.8753401444566,364.7882546827124L351.0505943646239,368.9101873895582L348.7933314205027,370.2553683485876L348.3303733652157,374.4162111014726L350.92841726837656,378.85742903726396L352.0093832365201,382.311615509454L352.07732027658585,384.0794920248274L353.0454230975233,383.7837981693359L352.8887296018877,389.6036257173125L352.00061716683416,392.3751716845252L353.2919688074395,393.39891500265753L352.47672432665,395.8921419103998L350.1865886212066,398.0310050094946L345.6671318187658,400.0678681409564L339.0783346910954,403.34246252840114L336.6753358384459,405.5873824619007L337.14541632535276,408.1541620032938L338.54579595767655,408.5650432709068L338.07516759141436,411.7864849227002L333.92005056029404,411.73495290235303L333.4494221940319,409.0287146902353L332.6385607480854,406.2932007095999L332.1706717786001,404.1110408660883L333.1469927898681,397.3751222658075L331.7214107071973,393.11414172974514L329.09706859497874,384.73926794810507L334.86952548314895,378.04714029379426L336.3142833432576,373.8215549114957L337.14158116986516,373.28979597852344L337.7606848414324,369.85719730371676L336.880242717354,368.1349101377641L337.11528296080746,363.80346093486344L338.1836477037774,359.8037856049689L338.17104647860396,352.5386949811734L335.32536110681616,350.70224964925205L332.71635961654783,350.2871426707036L331.5356796057272,348.8756732145766L328.99680667294615,347.67269163277075L324.4269449698113,347.78604041666705L324.07246702688747,345.6633079354901L323.5530773979974,341.6235850329516L340.1784764366768,336.9617838469311L343.33261788553756,339.6740763575854L344.8398339921583,339.15479558740356L347.00286168715604,340.58644874309647L347.3211795926255,342.85728012792407L346.16844142892865,345.49729459604134L346.5738721519019,349.5121557857235L350.14878494568615,353.0416388105572L351.8214606176284,349.0775294212252L354.1926824676665,347.8777529050686L353.7264371362472,340.57512490169313L351.4319183959609,336.4870560867977L349.4551696817887,334.6687581406891L347.5529325599467,334.751046602484L346.01887036491286,327.4431482443012Z"></path></g><g><path fill="#cbd5e8" stroke="gray" d="M333.92005056029404,411.73495290235303L332.8045681927623,414.46466047002355L329.59783032578616,415.1301297655605L326.3280863329426,411.7963009771913L326.2765856735379,409.6786095940148L327.77284419305124,407.3855405840211L328.29004230451983,405.61292591645713L329.8739615208923,405.1794175788202L332.6385607480854,406.2932007095999L333.4494221940319,409.0287146902353Z"></path></g><g><path fill="#cbd5e8" stroke="gray" d="M229.40548897134815,285.8675903308213L227.4117559971595,287.0234339111089L226.51542537177545,288.4376754635833L226.34393913354486,290.83679788643167L224.95013405348553,291.4182711396236L223.4856525365836,287.2802766735952L225.6968936148538,284.9061246493377L227.35258502677962,283.9817135435581ZM225.71771303035783,293.1269848636465L227.97935900932202,292.3865340056915L229.5665655018267,292.48954708279683L231.4879784011066,291.82745985364954L247.65535029869733,291.9007120167406L249.00696866839326,296.0073997022648L250.57938241830294,299.3171752618419L251.83840917694147,301.1038361456704L253.9367871080056,303.99551084257183L257.559365405707,303.5478895253319L259.3673672784255,302.76960429884525L262.39494859619583,303.5506557620275L263.215671870539,302.16795545710954L264.5903011731604,298.94773984675123L267.9882489351604,298.73239892725303L268.2835559077044,297.7757321173254L271.07883637879826,297.7547589833807L270.6016334602716,299.7441097037325L277.24960155832196,299.696055197252L277.3504113597099,303.17392542179726L278.46041493368796,305.3090168452694L277.65338864322905,308.6492697256261L278.0555320900701,312.06281011195676L279.88325761958185,314.12554018158215L279.5901421644593,320.7562465121228L280.94614356899814,320.2443699583572L283.32667936807746,320.3811152343428L286.7207919745899,319.54575044293745L289.21583455894137,319.8743773776659L289.79494303756667,321.60786956701827L289.17200421051183,324.3193361001763L290.1346282378956,326.94588344354776L289.3182879983955,329.04653020714534L289.78508120917,330.98553772056766L278.3771372716718,330.9147161731455L278.1245648888466,348.92299785453315L281.8211068995228,353.59806650081254L285.39601969330704,357.18055568245154L275.3270929003313,359.52446092086325L262.0629337068421,358.7099602410314L258.26667765348867,355.9569253024639L236.0578401042414,356.2042925499479L235.2294465189231,356.60789577324766L231.96353768156712,354.01442975506495L228.41163582070834,353.8431687190576L225.1320299994681,354.8195509402658L222.495086662076,355.9104428080619L221.97953218867355,352.3081850645105L222.73779721650456,347.29057782861025L224.6285288718838,342.08947595267455L224.91342613667578,339.65880033998775L226.69129464484894,334.5690042553549L227.9974390280492,332.26150236657145L231.1444580452901,328.5851947549579L232.90205501731458,326.09021437091224L233.4773283404523,321.9464097309094L233.1907874375942,318.78273748423953L231.5520802856848,316.7903704644854L230.09307756233653,313.4143594312539L228.74748586554972,310.0816789532778L229.04169707938297,308.92879205135966L230.72533033843263,306.7308012161855L229.06306437424237,301.3846065894657L227.94155533380155,297.6874253287246L225.19667976340168,294.1977724994024Z"></path></g><g><path fill="#fdcdac" stroke="gray" d="M325.1430232872789,272.8716514845816L325.4607933133931,275.0308979770066L326.64037756550306,276.27455706274577L326.690782466197,278.05794253102295L325.3391640965011,279.2067535279122L323.20681764540404,282.07034761084L321.2191113441245,284.0608462083917L318.9536302096727,284.3224346761549L318.6051789396579,277.6990246307995L317.2272623609042,275.20478682543194L320.5545336860616,275.6359640990694L322.2321402722022,272.513028701843Z"></path></g><g><path fill="#fff2ae" stroke="gray" d="M429.64443577169595,328.507758668776L431.09905546020127,330.89729237099885L432.4550568647402,334.6146534163489L433.33659474752926,341.41223539701787L434.756150157291,344.0649772075955L434.21155807805394,346.79134408498146L433.24290737776107,348.466938849745L431.3817612075718,345.1318066514435L430.35174801947767,346.8146786072357L431.3965539501668,351.03867413027467L430.9105849619543,353.46351301036657L429.39843794113517,354.7868758660653L429.0532739472526,359.6540350100153L426.8957250458086,366.39024464952485L424.19303618577214,374.41562619198316L420.808237528301,385.5684307372069L418.7098595972368,393.8502181978048L416.2339927903232,400.82458557749294L411.77808999310525,402.2573911774247L406.99510322073183,404.82210498179484L403.8398660131604,403.2727419973606L399.49025181088405,401.10681503132645L397.9786526694204,397.9244607180407L397.61705229487666,392.6064733758045L395.6879690846216,387.85533146979526L395.1866594744587,383.5910621854023L396.16791139992506,379.3402017227255L398.690347952045,378.3220484417298L398.7051406946399,376.3690212621268L401.32345613394955,371.936095653345L401.8170954331372,368.2284442260323L400.5460153286806,365.4814481198838L399.5083318296113,361.8350956022125L399.0705762246712,356.53037813915716L400.9848666923313,353.3232516626151L401.71902502852606,349.69814949240345L404.44965573568635,349.4881956409374L407.5057267799359,348.3193289163607L409.53452403286826,347.288869705771L411.9408101616499,347.2120067954306L415.0637224872545,343.9724273788161L419.57222170258797,340.48057484686603L421.21640764805113,337.6355063367524L420.4701959660382,335.2240218200926L422.7975874676466,335.90192725708283L425.8180463537973,331.9875408356159L425.91885615518527,328.6093242340709L427.733432580168,326.1014184056788Z"></path></g><g><path fill="#b3e2cd" stroke="gray" d="M66.63491552599152,184.44936030461156L72.60186958531784,184.28814020138708L73.83898116974159,182.9525293233163L75.57630660561743,182.8616721339888L77.73878642125979,184.2498052804135L79.43885606097052,184.27630159350176L81.24521429562289,183.3266140639539L82.35193059346874,184.95656952845303L79.98125662278606,186.22038103988564L77.60072082370674,186.12130105116321L75.25031838917273,184.9312136225624L73.21987749817436,186.23163967478865L72.23807769335266,186.2777991083962L70.9215236024004,187.0662100801762L65.93472570982962,186.94749898145812Z"></path></g><g><path fill="#f4cae4" stroke="gray" d="M210.15629569980547,85.25980425949291L207.81959024915568,73.76035802265127L204.44191402330435,71.14417565032886L204.39479639874259,69.56987408887224L199.9136911511776,65.67561123098986L199.43100943909732,60.71352421355297L202.80868566494865,57.01139136425266L204.09839366748784,51.49016924684901L203.22945700987222,45.03766835282508L204.34274785998252,41.53124645139391L210.30915403995348,38.7570438069676L214.14430952753813,39.583429738316255L213.98378087641493,43.053661900135864L218.63089356865677,40.53146261119585L219.0204357903243,41.84923850495346L216.28103901347814,45.19563125447564L216.2443310966684,48.33558110474601L218.1410894249567,50.014033689466544L217.4195323139354,55.82189006727489L213.8133903968951,59.167162112312695L214.854909051452,62.77202026240971L217.68799319806632,62.88407373230194L219.06700553553068,66.0086813132101L221.1505907239999,67.03224809199455L220.84103888821627,72.03612810114038L218.17012703079126,73.89551810935106L216.48320649560938,75.96369268110848L212.72091896228886,78.44133930727213L213.3038625964017,81.09416038145866L212.82939907465195,83.78766187602426Z"></path></g><g><path fill="#e6f5c9" stroke="gray" d="M110.62579260665346,103.47760125375325L110.73153332223973,102.28063774774361L110.72879392546288,101.86695388525132L110.6822241802565,94.49721474083717L119.52992789011427,89.86535630399825L125.00105113283144,88.9039057097265L129.48544365652862,87.2062953569284L131.58108219081595,84.0299767020513L137.98688761379304,81.50803928634502L138.22192785724644,76.76282863847968L141.39140992805747,76.20142016793238L143.8700161317479,73.81468445311012L151.04011325546506,72.72331657486885L152.04437611385686,70.20010574864375L150.6012618918143,68.81569177318741L148.7083387190136,61.8879949587288L148.3823505025689,57.85794794775853L146.31739321218225,53.58192198034405L151.5841574553467,49.90742836118807L157.5072811662435,48.73269474378196L160.96659141604485,45.935114591156974L166.24266960825057,43.86235771274207L175.52812892304837,42.64405803088263L184.59060134021087,42.088975284690946L187.3535569293379,43.10492534564864L192.51293681885,40.40369242848567L198.36757561032564,40.35078913631318L200.59580094861232,41.947201380642156L204.34274785998252,41.53124645139391L203.22945700987222,45.03766835282508L204.09839366748784,51.49016924684901L202.80868566494865,57.01139136425266L199.43100943909732,60.71352421355297L199.9136911511776,65.67561123098986L204.39479639874259,69.56987408887224L204.44191402330435,71.14417565032886L207.81959024915568,73.76035802265127L210.15629569980547,85.25980425949291L211.92868541442493,90.83856507507883L212.22673178374578,93.7543667615293L211.2619162389406,98.84287667403908L211.65748513351716,101.66960745834447L210.96167835219822,105.04751560070233L211.4394291500802,108.90809676704123L209.2648959886197,111.46213383496749L212.50450661691798,115.89459377798806L212.71050925453682,118.48816365733265L214.65822036287446,121.85028523184522L217.220104228581,120.74750923486002L221.54451598051037,123.54107347465578L223.94861059187056,127.29035673651276L205.17497660078837,138.59555379958846L189.31222562478294,150.09332445210248L181.586030955366,152.68303680807924L175.50840526625507,153.2506807852711L175.44594701974296,149.55578829758804L172.90871772502805,148.60910956640066L169.4976208584992,146.9416184991188L168.19476375143114,144.20286913531828L149.71314945676076,131.33573196300392L131.23208304144575,118.26094655823803Z"></path></g><g><path fill="#cbd5e8" stroke="gray" d="M357.79553710857454,179.77890476322443L357.21314135381704,177.51176018355687L359.5728577373924,169.15479342627515L360.1130667817864,165.35472734239124L361.83888675119954,163.59714083459517L365.87401820349396,162.65351582226836L368.64683562101766,159.37057030870432L371.8272752789361,166.01837533979L373.3366829029783,171.26021907028894L376.34015752911245,174.0320895872642L383.8187107299025,179.38850681933474L386.86327630768926,182.61051228620315L389.8316866550798,185.86343415486272L391.5454532786748,187.79681890603985L394.23882818966996,189.48717599886476L392.5864240538763,190.85799492923323L390.241500412896,190.3708915108501L388.3683008968886,188.55345910983155L386.11596886696566,185.25460647669516L383.68667180525847,183.44395205832046L382.26985579227363,181.49466323894347L377.5016617624952,179.22722006611764L373.74485302272836,179.1598696259357L372.4233680175778,177.97583158587955L369.2106034776926,179.30701715931554L365.8855236699567,176.7356487451533L364.1744964431386,180.9606794770531Z"></path></g><g><path fill="#fdcdac" stroke="gray" d="M125.71658157094366,49.60233936822581L129.7495215058166,49.63474642089719L133.0526861393377,52.49306745564414L138.26247092954375,52.02814707894831L143.9374052924583,53.510203785352786L146.31739321218225,53.58192198034405L148.3823505025689,57.85794794775853L148.7083387190136,61.8879949587288L150.6012618918143,68.81569177318741L152.04437611385686,70.20010574864375L151.04011325546506,72.72331657486885L143.8700161317479,73.81468445311012L141.39140992805747,76.20142016793238L138.22192785724644,76.76282863847968L137.98688761379304,81.50803928634502L131.58108219081595,84.0299767020513L129.48544365652862,87.2062953569284L125.00105113283144,88.9039057097265L119.52992789011427,89.86535630399825L110.6822241802565,94.49721474083717L110.72879392546288,101.86695388525132L98.52204188783634,101.87375790708978L86.31528985020978,101.88118039830033L89.07002724900629,99.50117725753901L94.16475737458481,98.81553692396514L98.48149881553901,94.55475471854871L101.22856590336036,92.8859018836292L105.80226276198272,87.62875622584903L104.43311225291501,79.71317036975432L106.51450592396273,74.17802574331375L107.24921213951286,70.76465084254554L110.77317215324778,66.35662410653299L116.27004572566732,63.3557728367046L120.33366690444093,60.626845087365496L123.99459675701814,53.73270049081259Z"></path></g><g><path fill="#f4cae4" stroke="gray" d="M360.18812625347203,136.03314222793574L338.45813526081747,136.03314222793574L317.2004162724911,136.03314222793574L295.1756661866479,136.03314222793574L295.1756661866479,113.96998007790779L295.1756661866479,92.00684890768045L293.5325759998956,86.92913821988222L294.94336533997136,83.00919427583636L294.0957959772152,80.27899429189839L296.0785713642964,77.20090202294824L303.36810618748405,77.09479029328583L308.6403492242022,78.79289896789427L314.08024334366337,80.68511535198525L316.61692475902294,81.6804061343982L320.83504791601064,79.65425339482229L323.0901193427104,77.81662268251836L327.9218673777117,77.2864208410015L331.8178374737423,78.09792169813022L333.3102608377681,81.27430882137526L334.5818888215801,79.18399307557226L338.97259397550914,80.69598416085756L343.24331355061236,81.0577409375897L345.58056688061754,79.0577165753597L346.34759797813444,80.65826216904199L348.99495102327853,88.71838282400066L349.5395431025156,90.35592341193856L348.00054999328336,92.88088571105013L346.8215136205288,97.60026709654926L345.3312817739245,100.83380279545221L344.0541749965588,101.91458060078824L342.2280931051131,99.91569760882342L339.75551357433176,97.14131768690507L335.84584649441695,88.15011685784302L335.28317439645275,88.72280066793144L337.55303856574744,95.34791329608103L340.91701780771456,101.59783082910425L345.05788997559523,111.16924386392168L347.08120843497386,114.4798606405997L348.84099692441976,117.90305965517453L353.757118380148,124.56790757145396L352.66848210102927,125.61193750281743L352.84544713281355,129.49312700352598L359.226597984799,134.82149581924466Z"></path></g><g><path fill="#b3e2cd" stroke="gray" d="M295.1756661866479,136.03314222793574L295.1756661866479,147.75358699200126L288.8750535999017,147.7710783896399L288.8076644391913,150.2137041376585L266.9560442296447,139.01137115285252L245.1044240200982,127.66059704821924L239.5730340482904,130.91784132617366L235.69733548840844,133.12494029541583L232.61551411445652,129.86174778681615L223.94861059187056,127.29035673651276L221.54451598051037,123.54107347465578L217.220104228581,120.74750923486002L214.65822036287446,121.85028523184522L212.71050925453682,118.48816365733265L212.50450661691798,115.89459377798806L209.2648959886197,111.46213383496749L211.4394291500802,108.90809676704123L210.96167835219822,105.04751560070233L211.65748513351716,101.66960745834447L211.2619162389406,98.84287667403908L212.22673178374578,93.7543667615293L211.92868541442493,90.83856507507883L210.15629569980547,85.25980425949291L212.82939907465195,83.78766187602426L213.3038625964017,81.09416038145866L212.72091896228886,78.44133930727213L216.48320649560938,75.96369268110848L218.17012703079126,73.89551810935106L220.84103888821627,72.03612810114038L221.1505907239999,67.03224809199455L227.58543375281153,69.27992012043413L229.88652704536233,68.71914810820621L234.46351118011694,69.80629108237673L241.73332234651127,72.70906233794798L244.2990413677054,78.4400558674991L249.21735434085502,79.68435299952256L256.9397138547844,82.35918719974754L262.7762726275329,85.52120980436479L265.44773236431325,83.87353232708313L268.07371811459797,80.94080065563611L266.79715921658766,76.02554959935301L268.51585675438093,72.88332907396006L272.4633275098163,69.84015009939196L276.2354768715335,68.95134753469466L283.64718879096847,70.28404166731755L285.51545739277753,73.18574400416304L287.5552122328172,73.21293431212186L289.29966010031285,74.31632125248444L294.7433893752616,75.07378886511938L296.0785713642964,77.20090202294824L294.0957959772152,80.27899429189839L294.94336533997136,83.00919427583636L293.5325759998956,86.92913821988222L295.1756661866479,92.00684890768045L295.1756661866479,113.96998007790779Z"></path></g><g><path fill="#f4cae4" stroke="gray" d="M420.0340839991642,215.6524172193261L404.55210917514046,232.2048743853836L397.4148848127454,232.4468546218718L392.5321839976948,236.32193855479935L389.0197294504226,236.4235748434415L387.5212794134877,238.15487291411222L383.77761977824974,238.1537745871497L381.5680223380457,236.2977652408537L376.56259654739233,238.5947318909441L374.9436130522762,240.8823409711552L371.2898056313188,240.4509207239204L370.07680073853135,239.8174465366491L368.7942151676119,239.96896060062386L367.0623685252898,239.91351576951502L360.127311645026,235.24883803814575L356.3140713316561,235.24883803814575L354.44196757435947,233.43990621316198L354.44196757435947,230.35317684177028L351.59628220257173,229.429702949367L348.3583152123395,223.4341938798755L345.8561501963682,222.15489753963715L344.89626556576127,219.9473461172265L342.11961299275004,217.25467128753323L338.7550858714276,216.85822134174242L340.6211629558152,213.70627593327816L343.52875869475974,213.57004767355374L344.34783833103677,211.87809794805688L344.2842843258139,207.55210486291276L344.2744224974172,206.88934959620636L345.89559750995477,201.06533147008685L348.49090201633885,199.50320244724867L349.04097288912953,197.2206540755372L351.39082744430823,192.94655181830336L354.6950878365401,190.1682575984148L356.92276529547144,184.62803257727L357.79553710857454,179.77890476322443L364.1744964431386,180.9606794770531L365.8855236699567,176.7356487451533L369.2106034776926,179.30701715931554L372.4233680175778,177.97583158587955L373.74485302272836,179.1598696259357L377.5016617624952,179.22722006611764L382.26985579227363,181.49466323894347L383.68667180525847,183.44395205832046L386.11596886696566,185.25460647669516L388.3683008968886,188.55345910983155L390.241500412896,190.3708915108501L388.3151565994178,192.85073878879678L386.462228619559,195.4752846937434L386.8884787580363,197.01893360363772L386.97613945489536,198.7179596830396L390.0360456546326,198.81118151836097L391.3553391423617,198.41537077455467L392.57163131128135,199.41001974916747L391.37670643722106,201.385832745147L393.4000248965997,204.45240816881173L395.42115183855674,207.12881263657536L397.51295521735653,209.11059447636742L415.42587074115363,215.68616629965095Z"></path></g><g><path fill="#b3e2cd" stroke="gray" d="M390.241500412896,190.3708915108501L392.5864240538763,190.85799492923323L394.23882818966996,189.48717599886476L395.5356586238289,191.2243373677498L395.3630766268876,193.55154570706947L392.23742490450616,194.8911971560441L394.5900188564616,196.42144510485178L392.57163131128135,199.41001974916747L391.3553391423617,198.41537077455467L390.0360456546326,198.81118151836097L386.97613945489536,198.7179596830396L386.8884787580363,197.01893360363772L386.462228619559,195.4752846937434L388.3151565994178,192.85073878879678Z"></path></g><g><path fill="#cbd5e8" stroke="gray" d="M426.38290996918295,196.70875951552296L426.34894144915006,196.79986196516845L426.32976567171215,199.1008611059325L426.3281220336461,204.7216706099654L426.3275741542906,207.6220890036578L423.85444674415385,211.02994605482135L420.0340839991642,215.6524172193261L415.42587074115363,215.68616629965095L397.51295521735653,209.11059447636742L395.42115183855674,207.12881263657536L393.4000248965997,204.45240816881173L391.37670643722106,201.385832745147L392.57163131128135,199.41001974916747L394.5900188564616,196.42144510485178L396.3728182788331,197.45140004197316L397.44666181535683,199.75984630815896L399.91814558742743,202.094067408208L402.6383665868357,202.11245200404773L407.8026773905461,200.6867834999105L413.7663441737402,200.02593307497187L418.58932613905563,198.29197431612036L421.30625986233156,197.9239627038416L423.2632849197105,196.90493069753492L426.38290996918295,196.70875951552296Z"></path></g><g><path fill="#fff2ae" stroke="gray" d="M343.95720035065847,264.8475699377232L332.79415848501026,265.27169173526545L326.7877571120974,265.201004076389L324.8657963334621,265.8596710258618L321.59166930577555,267.55085672266927L320.265801265782,266.99185466889304L320.31127525227765,262.8607772717287L321.5807117186682,260.7672762847945L321.88916779574106,256.36938698672935L323.04190595943794,253.82202169116346L325.1364487350145,250.96405905074215L327.24140121834307,249.50823683829216L329.0022854664998,247.56149605192297L326.80638501017995,246.8190835093633L327.1383998995337,240.40426370767773L329.39401920558885,238.90716589863655L332.8774361470264,240.13474248568386L337.28786495774875,238.85006175094958L341.1427441021267,238.8626906119468L344.5122021376475,236.33677211091572L347.109698161453,240.14956377964654L347.75071700723504,242.9039592845811L350.1608382915043,249.1990668765353L348.16710531731565,253.1940319534345L345.47099100954364,256.8208608868396L343.90186453576615,259.04090566092344Z"></path></g><g><path fill="#e6f5c9" stroke="gray" d="M324.8657963334621,265.8596710258618L327.0408773742779,268.9517641589014L326.7242031068745,272.1774519543633L325.1430232872789,272.8711031186493L325.1430232872789,272.8716514845816L322.2321402722022,272.513028701843L320.5545336860616,275.6359640990694L317.2272623609042,275.20478682543194L317.73459864397614,272.2043194949426L318.48683699889807,271.78157750308173L318.6901002397401,268.5198540411478L320.265801265782,266.99185466889304L321.59166930577555,267.55085672266927Z"></path></g><g><path fill="#b3e2cd" stroke="gray" d="M327.1383998995337,240.40426370767773L322.3148700548629,236.75538673286306L321.013656585861,234.408511710861L317.9625164558097,235.57085244761691L315.4291223165824,235.209271367357L313.96244928225894,236.13184466758904L311.5024709766511,235.46589832604252L308.1834178418243,230.92705570554548L307.30242783839054,229.18200504134285L303.2070296570055,227.00308321203954L301.8236342846982,223.6967086547329L299.54007313151925,221.30941780173873L295.8555844666611,218.43312104911195L295.80517956596714,216.63646735892002L292.80554009532057,214.40057485895787L289.0777689613883,212.23776472568937L290.7603064617273,211.6336663961245L292.64117628870986,210.5868826950844L294.05196562878564,205.6298592579124L295.5569902179849,203.0503658742759L299.5072003701971,202.28570331549187L300.4479092233661,203.81525293520895L303.26948790351764,207.0610326729637L304.7745124927169,207.53766337179854L306.749617568823,206.58372611882206L310.70037560039054,206.77488552948597L311.4526139553125,207.91921539515897L316.907848696724,207.91921539515897L317.0957713156156,206.77488552948597L319.91789787512255,205.72493444083713L320.4822136111528,204.10186168492402L322.55100605702705,202.95514933328556L327.1597671943931,206.20246042257278L329.9818937539,205.6298592579124L332.70923718492804,201.61599920687385L335.71928636332666,198.55215683527825L335.24865799706447,195.19389834249228L333.9321039061122,193.56050675586815L337.2237630731705,193.27204631923541L337.60015619030924,192.02122268088357L340.1395770024456,192.40633258468606L339.48157389664715,196.5382776837146L340.1395770024456,200.56355596399231L342.96170356195256,202.76358696765095L343.619706667751,204.67494198595736L343.5260192979829,207.44212459957237L344.2842843258139,207.55210486291276L344.34783833103677,211.87809794805688L343.52875869475974,213.57004767355374L340.6211629558152,213.70627593327816L338.7550858714276,216.85822134174242L342.11961299275004,217.25467128753323L344.89626556576127,219.9473461172265L345.8561501963682,222.15489753963715L348.3583152123395,223.4341938798755L351.59628220257173,229.429702949367L347.882755931879,233.05448424031667L344.5122021376475,236.33677211091572L341.1427441021267,238.8626906119468L337.28786495774875,238.85006175094958L332.8774361470264,240.13474248568386L329.39401920558885,238.90716589863655Z"></path></g></svg>
